<svg width="186" height="74" viewBox="0 0 186 74" fill="none" xmlns="http://www.w3.org/2000/svg">
<path d="M0 72.7271V-0.000224113H31.5341C37.0739 -0.000224113 41.7259 0.745515 45.4901 2.23699C49.2779 3.72847 52.1307 5.83548 54.0483 8.55801C55.9896 11.2806 56.9602 14.4884 56.9602 18.1816C56.9602 20.8568 56.3684 23.2952 55.1847 25.4969C54.0246 27.6986 52.3911 29.5452 50.2841 31.0367C48.1771 32.5045 45.715 33.5225 42.8977 34.0907V34.8009C46.0227 34.9193 48.8636 35.7124 51.4205 37.1802C53.9773 38.6243 56.0133 40.6248 57.5284 43.1816C59.0436 45.7147 59.8011 48.6977 59.8011 52.1305C59.8011 56.1077 58.7595 59.647 56.6761 62.7484C54.6165 65.8497 51.6809 68.2881 47.8693 70.0637C44.0578 71.8393 39.5123 72.7271 34.233 72.7271H0ZM19.7443 56.96H28.9773C32.2917 56.96 34.7775 56.3445 36.4347 55.1134C38.0919 53.8587 38.9205 52.0121 38.9205 49.5736C38.9205 47.8691 38.5298 46.425 37.7486 45.2413C36.9673 44.0575 35.8546 43.1579 34.4105 42.5424C32.9901 41.9269 31.2737 41.6191 29.2614 41.6191H19.7443V56.96ZM19.7443 29.4032H27.8409C29.5691 29.4032 31.0961 29.1309 32.4219 28.5864C33.7476 28.0419 34.7775 27.2607 35.5114 26.2427C36.2689 25.201 36.6477 23.9344 36.6477 22.443C36.6477 20.1939 35.8428 18.4775 34.233 17.2938C32.6231 16.0864 30.5871 15.4827 28.125 15.4827H19.7443V29.4032ZM82.2798 73.5793C78.7997 73.5793 75.7221 73.0111 73.0469 71.8748C70.3954 70.7147 68.312 68.9628 66.7969 66.6191C65.2817 64.2753 64.5241 61.2924 64.5241 57.6702C64.5241 54.6873 65.0331 52.1423 66.0511 50.0353C67.0691 47.9046 68.4896 46.1646 70.3125 44.8151C72.1354 43.4657 74.2543 42.4359 76.669 41.7256C79.1075 41.0154 81.7353 40.5538 84.5526 40.3407C87.6065 40.1039 90.0568 39.8199 91.9034 39.4884C93.7737 39.1333 95.1231 38.648 95.9517 38.0324C96.7803 37.3932 97.1946 36.5528 97.1946 35.5111V35.3691C97.1946 33.9486 96.6501 32.8596 95.5611 32.1021C94.4721 31.3445 93.0753 30.9657 91.3707 30.9657C89.5005 30.9657 87.9735 31.38 86.7898 32.2086C85.6297 33.0135 84.9313 34.2564 84.6946 35.9373H66.6548C66.8916 32.6229 67.9451 29.5689 69.8153 26.7753C71.7093 23.9581 74.4673 21.7091 78.0895 20.0282C81.7116 18.3236 86.2334 17.4714 91.6548 17.4714C95.5611 17.4714 99.0649 17.933 102.166 18.8563C105.268 19.7559 107.907 21.0225 110.085 22.656C112.263 24.2659 113.92 26.1598 115.057 28.3378C116.217 30.4922 116.797 32.836 116.797 35.3691V72.7271H98.473V65.0566H98.0469C96.9579 67.0926 95.6321 68.7379 94.0696 69.9927C92.5308 71.2474 90.767 72.1589 88.7784 72.7271C86.8134 73.2952 84.6473 73.5793 82.2798 73.5793ZM88.6719 61.2214C90.1634 61.2214 91.5601 60.9136 92.8622 60.2981C94.188 59.6825 95.2652 58.7948 96.0938 57.6347C96.9223 56.4747 97.3366 55.0661 97.3366 53.4089V48.8634C96.8158 49.0765 96.2595 49.2777 95.6676 49.4671C95.0994 49.6565 94.4839 49.8341 93.821 49.9998C93.1818 50.1655 92.4953 50.3194 91.7614 50.4614C91.0511 50.6035 90.3054 50.7337 89.5241 50.8521C88.009 51.0888 86.7661 51.4794 85.7955 52.0239C84.8485 52.5448 84.1383 53.1958 83.6648 53.9771C83.215 54.7346 82.9901 55.5869 82.9901 56.5339C82.9901 58.049 83.5227 59.2091 84.5881 60.014C85.6534 60.8189 87.0147 61.2214 88.6719 61.2214ZM125.879 72.7271V-0.000224113H157.413C162.953 -0.000224113 167.605 0.745515 171.369 2.23699C175.157 3.72847 178.01 5.83548 179.927 8.55801C181.868 11.2806 182.839 14.4884 182.839 18.1816C182.839 20.8568 182.247 23.2952 181.064 25.4969C179.904 27.6986 178.27 29.5452 176.163 31.0367C174.056 32.5045 171.594 33.5225 168.777 34.0907V34.8009C171.902 34.9193 174.743 35.7124 177.299 37.1802C179.856 38.6243 181.892 40.6248 183.407 43.1816C184.922 45.7147 185.68 48.6977 185.68 52.1305C185.68 56.1077 184.638 59.647 182.555 62.7484C180.495 65.8497 177.56 68.2881 173.748 70.0637C169.937 71.8393 165.391 72.7271 160.112 72.7271H125.879ZM145.623 56.96H154.856C158.171 56.96 160.656 56.3445 162.314 55.1134C163.971 53.8587 164.799 52.0121 164.799 49.5736C164.799 47.8691 164.409 46.425 163.627 45.2413C162.846 44.0575 161.734 43.1579 160.289 42.5424C158.869 41.9269 157.153 41.6191 155.14 41.6191H145.623V56.96ZM145.623 29.4032H153.72C155.448 29.4032 156.975 29.1309 158.301 28.5864C159.627 28.0419 160.656 27.2607 161.39 26.2427C162.148 25.201 162.527 23.9344 162.527 22.443C162.527 20.1939 161.722 18.4775 160.112 17.2938C158.502 16.0864 156.466 15.4827 154.004 15.4827H145.623V29.4032Z" fill="#FF5722"/>
</svg>
